<svg width="91" height="24" viewBox="0 0 91 24" fill="none" xmlns="http://www.w3.org/2000/svg">
<path fill-rule="evenodd" clip-rule="evenodd" d="M29.9612 6.0802H27.4287L31.8407 16.4662C31.9017 16.6105 31.9827 16.7415 32.0836 16.8591C32.1844 16.9768 32.2986 17.0784 32.426 17.1639C32.5561 17.2468 32.6954 17.3109 32.8441 17.3564C32.9954 17.4045 33.152 17.4286 33.314 17.4286C33.4706 17.4286 33.6219 17.4045 33.7679 17.3564C33.9166 17.3109 34.0533 17.2468 34.178 17.1639C34.3055 17.0784 34.4196 16.9768 34.5205 16.8591C34.6214 16.7415 34.7023 16.6105 34.7634 16.4662L37.7458 9.44461L40.7482 16.4822C40.8092 16.6239 40.8889 16.7536 40.9871 16.8712C41.088 16.9861 41.2008 17.085 41.3256 17.1679C41.453 17.2508 41.591 17.315 41.7397 17.3604C41.8883 17.4058 42.0423 17.4286 42.2016 17.4286C42.3555 17.4286 42.5042 17.4058 42.6475 17.3604C42.7935 17.315 42.9289 17.2508 43.0537 17.1679C43.1811 17.085 43.2939 16.9848 43.3922 16.8672C43.4904 16.7495 43.57 16.6199 43.6311 16.4782L48.0629 6.0802H45.5304L42.1896 13.9158L39.2191 6.97444C39.1554 6.8274 39.0718 6.69507 38.9683 6.57744C38.8674 6.45714 38.7519 6.35422 38.6218 6.26867C38.4944 6.18312 38.3551 6.11763 38.2037 6.07218C38.0551 6.02406 37.9024 6 37.7458 6H37.7259C37.5693 6 37.4153 6.02406 37.264 6.07218C37.1154 6.11763 36.976 6.18312 36.8459 6.26867C36.7185 6.35422 36.6043 6.45714 36.5035 6.57744C36.4026 6.69507 36.3203 6.8274 36.2566 6.97444L33.302 13.9158L29.9612 6.0802ZM53.8964 6.0799H51.567V17.308H53.8964V6.0799ZM58.8821 17.3079C58.6857 17.3079 58.5065 17.2771 58.3445 17.2156C58.1853 17.1515 58.0486 17.0619 57.9344 16.947C57.8203 16.832 57.7313 16.6943 57.6676 16.5339C57.6066 16.3709 57.576 16.1904 57.576 15.9926V15.9284C57.576 15.8135 57.5906 15.6999 57.6198 15.5876C57.6517 15.4726 57.6942 15.3643 57.7473 15.2628C57.803 15.1585 57.8694 15.0623 57.9464 14.974C58.026 14.8858 58.1136 14.8096 58.2092 14.7455L67.9887 8.22516H57.8787V6.0798H70.5411C70.7375 6.0798 70.9154 6.11188 71.0747 6.17604C71.2366 6.23753 71.3746 6.32575 71.4888 6.4407C71.6029 6.55566 71.6905 6.69467 71.7516 6.85774C71.8153 7.01815 71.8472 7.19726 71.8472 7.39509V7.45925C71.8472 7.5742 71.8312 7.68916 71.7994 7.80411C71.7702 7.91639 71.7277 8.02466 71.672 8.12892C71.6189 8.23051 71.5525 8.32541 71.4729 8.41363C71.3959 8.50185 71.3096 8.57805 71.214 8.64221L61.4345 15.1625H71.5445V17.3079H58.8821ZM75.4198 7.36702V16.0207C75.4198 16.2131 75.4503 16.3882 75.5114 16.546C75.5724 16.7037 75.6587 16.84 75.7702 16.955C75.8843 17.0673 76.0197 17.1542 76.1763 17.2156C76.333 17.2771 76.5068 17.3079 76.698 17.3079H89.6869V15.1625H77.7492V12.6442H88.2375V10.4988H77.7492V8.22516H89.6869V6.0798H76.698C76.5068 6.0798 76.333 6.11054 76.1763 6.17203C76.0197 6.23352 75.8843 6.32174 75.7702 6.43669C75.6587 6.54897 75.5724 6.68398 75.5114 6.8417C75.4503 6.99943 75.4198 7.17454 75.4198 7.36702Z" fill="#1C192B"/>
<circle cx="5.68421" cy="5.68421" r="3.68421" fill="#3E6CFF"/>
<circle cx="17.7892" cy="12.5263" r="3.15789" fill="#3E6CFF"/>
<circle cx="8.84231" cy="17.2632" r="4.73684" fill="#3E6CFF"/>
<rect x="5.15771" y="7.84399" width="2.10526" height="6.31579" transform="rotate(-16.0172 5.15771 7.84399)" fill="#3E6CFF"/>
<rect x="16.0518" y="12.5264" width="2.10526" height="6.31579" transform="rotate(63.068 16.0518 12.5264)" fill="#3E6CFF"/>
</svg>
