<svg width="20" height="21" viewBox="0 0 20 21" fill="none" xmlns="http://www.w3.org/2000/svg">
  <path fill-rule="evenodd" clip-rule="evenodd"
        d="M15.8337 2.25C16.2479 2.25 16.5837 2.58579 16.5837 3V7.16667C16.5837 7.58088 16.2479 7.91667 15.8337 7.91667H11.667C11.2528 7.91667 10.917 7.58088 10.917 7.16667C10.917 6.75245 11.2528 6.41667 11.667 6.41667H14.2822C13.8438 5.95671 13.3322 5.56826 12.7651 5.26864C11.7863 4.75149 10.6828 4.51936 9.57878 4.5985C8.47458 4.67765 7.41377 5.06518 6.51885 5.71657C5.62388 6.368 4.9296 7.25744 4.51492 8.28379C4.35976 8.66784 3.92263 8.85339 3.53858 8.69822C3.15453 8.54306 2.96898 8.10593 3.12415 7.72188C3.64395 6.43533 4.51424 5.3204 5.63612 4.50381C6.75806 3.68718 8.08757 3.20155 9.47153 3.10234C10.8556 3.00313 12.239 3.29418 13.4658 3.94238C14.0577 4.25509 14.6012 4.64488 15.0837 5.09918V3C15.0837 2.58579 15.4195 2.25 15.8337 2.25ZM16.4626 12.3022C16.8467 12.4573 17.0322 12.8945 16.877 13.2785C16.3572 14.5651 15.4869 15.68 14.3651 16.4966C13.2431 17.3132 11.9148 17.7983 10.5309 17.8975C9.14688 17.9967 7.76249 17.7057 6.53557 17.0575C5.94362 16.7447 5.39978 16.3549 4.91703 15.9004V18C4.91703 18.4142 4.58124 18.75 4.16703 18.75C3.75281 18.75 3.41703 18.4142 3.41703 18V13.8333C3.41703 13.4191 3.75281 13.0833 4.16703 13.0833H8.33369C8.74791 13.0833 9.08369 13.4191 9.08369 13.8333C9.08369 14.2475 8.74791 14.5833 8.33369 14.5833H5.71883C6.15735 15.0432 6.66917 15.4316 7.23631 15.7312C8.21501 16.2483 9.31945 16.4805 10.4236 16.4013C11.5279 16.3222 12.5875 15.9352 13.4823 15.2838C14.3773 14.6324 15.0716 13.743 15.4863 12.7166C15.6414 12.3326 16.0786 12.147 16.4626 12.3022Z"
        fill="#ADA8C0"/>
</svg>
